<?xml version="1.0" encoding="UTF-8"?>
<svg width="32px" height="32px" viewBox="0 0 32 32" version="1.1" xmlns="http://www.w3.org/2000/svg" xmlns:xlink="http://www.w3.org/1999/xlink">
    <title>ico-search</title>
    <g id="Page-1" stroke="none" stroke-width="1" fill="none" fill-rule="evenodd">
        <g id="ico-search" transform="translate(-0.000000, -0.000000)" fill="#FFFFFF" fill-rule="nonzero">
            <path d="M19.9613087,22.9400922 C15.0257752,26.457492 8.12951352,26.002214 3.70155749,21.574258 C-1.23385249,16.638848 -1.23385249,8.63696746 3.70155749,3.70155748 C8.63696746,-1.23385249 16.638848,-1.2338525 21.574258,3.70155748 C26.002214,8.12951353 26.457492,15.0257752 22.9400922,19.9613087 L32,29.0212166 L29.0212166,32 L19.9613087,22.9400922 Z M18.5954746,18.5954746 C21.885748,15.3052013 21.885748,9.97061422 18.5954746,6.6803409 C15.3052013,3.39006758 9.97061422,3.39006758 6.6803409,6.6803409 C3.39006758,9.97061422 3.39006758,15.3052013 6.6803409,18.5954746 C9.97061422,21.885748 15.3052013,21.885748 18.5954746,18.5954746 Z" id="Shape"></path>
        </g>
    </g>
</svg>