<svg height="108" viewBox="0 0 344 108" width="344" xmlns="http://www.w3.org/2000/svg"><g fill="none" fill-rule="evenodd"><g fill="#ff6112"><circle cx="27" cy="27" r="27"/><path d="m54 27v81c-36 0-54 0-54 0 35.8158691-23.7304138 48-54 54-81z" transform="matrix(-1 0 0 1 54 0)"/></g><g fill="#ffb088" transform="translate(54)"><circle cx="27" cy="27" r="27"/><path d="m54 27v81c-36 0-54 0-54 0 35.8158691-23.7304138 48-54 54-81z" transform="matrix(-1 0 0 1 54 0)"/></g><path d="m13.286031 49.0465632v-1.4279379c-1.4693274 0-2.4730229-.1603844-3.0110864-.481153-.53806359-.3207687-.86400595-.8019217-.97782708-1.443459-.11382114-.6415373-.17073171-2.4316334-.17073171-5.3702882v-9.654102c1.28307469 1.2416851 2.64375459 2.1781227 4.08203989 2.8093126s2.9438285.9467849 4.5166297.9467849c3.8285292 0 6.917221-1.3348115 9.2660754-4.0044346 2.3488544-2.669623 3.5232816-5.9911308 3.5232816-9.9645233 0-4.0561714-1.1692535-7.3207686-3.5077605-9.7937915-2.338507-2.47302294-5.2668145-3.70953439-8.7849224-3.70953439-1.6969697 0-3.3059867.3466371-4.827051 1.03991131-1.5210643.6932742-2.9438285 1.74353289-4.26829269 3.15077608 0-1.63488547-.1759054-3.03178126-.52771619-4.19068739h-.83813747c-3.12490761.82779009-5.71175166 1.3451589-7.76053215 1.55210643v1.42793791h.93126386c1.32446415 0 2.24538063.18625275 2.76274944.55875835.51736881.3725055.81226904.9105691.88470067 1.6141907.07243163.7036215.10864745 2.4109386.10864745 5.1219512l-.00018862 23.4438939c-.00289224 2.6273893-.03904518 4.2236966-.10845883 4.788922-.07243163.5898005-.33111604 1.0968219-.77605322 1.5210643-.44493717.4242425-1.40206947.6363637-2.87139689.6363637h-.93126386v1.4279379zm3.3525499-16.2971175c-1.3865484 0-2.7058388-.3466371-3.9578714-1.0399113-1.2520325-.6932742-2.4368071-1.7228382-3.55432369-3.0886918v-15.4589801c1.15890609-1.4693274 2.37989649-2.5661493 3.66297119-3.2904656 1.2830746-.72431634 2.6385809-1.08647451 4.0665188-1.08647451 2.3178123 0 4.3148559.94161124 5.9911309 2.82483371 1.6762749 1.8832225 2.5144124 4.7287509 2.5144124 8.5365854 0 4.3872875-.8691796 7.5846267-2.6075388 9.5920177s-3.7767923 3.0110865-6.1152994 3.0110865zm40.3237251 1.3037694c3.2904656 0 5.0288248-1.7694014 5.2150776-5.308204h-1.1485588c-.331116 2.0280857-1.1796009 3.0421286-2.5454545 3.0421286-.8277901 0-1.3658537-.3414634-1.6141907-1.0243903-.248337-.6829268-.3725055-2.2246858-.3725055-4.6252771v-10.2749446c0-2.172949-.232816-3.7871397-.6984479-4.842572-.465632-1.05543242-1.4227643-1.99704365-2.8713969-2.82483375-1.4486327-.82779009-3.4870658-1.24168514-6.1152994-1.24168514-3.5388026 0-6.1463414.67775314-7.8226164 2.03325942-1.6762749 1.35550627-2.5144124 2.62305987-2.5144124 3.80266077 0 1.2002956.63119 1.8004434 1.8935699 1.8004434 1.4072431 0 2.2764227-1.0554323 2.6075388-3.1662971.3518107-2.06947521 2.0798226-3.10421283 5.1840354-3.10421283 1.5521065 0 2.804139.31042128 3.7560976.93126385.9519586.62084258 1.541759 1.32446418 1.7694013 2.11086478s.3414634 2.0591278.3414634 3.8181818v1.2416851l-4.8115299 1.9556541c-3.6629712 1.510717-6.5343681 3.0628234-8.6141907 4.6563193-2.0798226 1.593496-3.1197339 3.4560237-3.1197339 5.5875832 0 1.6348854.6208426 2.9490022 1.8625277 3.9423503 1.2416852.9933481 2.72136 1.4900222 4.4390244 1.4900222 1.3451589 0 2.8713969-.3725056 4.578714-1.1175167 1.707317-.745011 3.5957132-1.8521803 5.6651884-3.3215077.2483371 1.4693274.7812269 2.5764967 1.5986697 3.3215077.8174427.7450111 1.9297856 1.1175167 3.3370288 1.1175167zm-12.6341464-2.2660754c-1.0968218 0-1.9866962-.398374-2.669623-1.195122-.6829268-.7967479-1.0243903-1.8470066-1.0243903-3.150776 0-3.2904656 2.6696231-6.022173 8.0088692-8.195122l3.383592-1.3658536v10.0576496c-1.5934959 1.2830747-3.0317812 2.2453807-4.3148558 2.886918-1.2830747.6415373-2.4109387.962306-3.3835921.962306zm33.9600887 1.6141907v-1.4279379h-.8691796c-1.3244641 0-2.2453806-.1862528-2.7627494-.5587584-.5173688-.3725055-.812269-.9105691-.8847007-1.6141906-.0661332-.6424371-.1020752-2.1216034-.1078259-4.4374987l-.0008215-5.2166033c0-2.2764228.1759054-4.0665189.5277162-5.3702883s1.1485587-2.5609756 2.3902439-3.7716186c1.2416851-1.21064303 2.3074649-1.81596453 3.1973392-1.81596453.7450111 0 1.3037694.51736881 1.676275 1.55210643.5380635 1.5314117 1.3244641 2.2971175 2.3592017 2.2971175.5794531 0 1.0709535-.2172949 1.4745011-.6518847.4035477-.4345898.6053215-.9519586.6053215-1.5521064 0-.88987437-.3932003-1.75905397-1.1796008-2.60753882-.7864006-.84848485-1.8625278-1.27272727-3.2283814-1.27272727-1.5107169 0-3.0576497.62084257-4.6407982 1.86252771-1.5831486 1.24168518-2.7265337 2.78344418-3.4301553 4.62527718-.0620842-2.6903178-.3932002-4.85291945-.9933481-6.48780489-3.1456023.99334811-5.6910569 1.60384331-7.6363636 1.83148558v1.39689581h.6518847c1.3244641 0 2.2453806.1914264 2.7627494.5742794.5173689.3828529.8122691.9209164.8847007 1.6141906.0724316.6932743.1086475 2.405765.1086475 5.1374723v7.1707317c0 2.9386549-.0517369 4.7184036-.1552107 5.3392462-.1034737.6208425-.4190687 1.1019955-.9467849 1.4434589-.5277162.3414635-1.4124169.5121952-2.654102.5121952h-.6518847v1.4279379zm19.5254989 1.0243902c1.2830747 0 2.5506278-.3466371 3.8026608-1.0399113s2.198817-1.7228381 2.840355-3.0886918l-.993348-.5898004c-1.096822 1.6969697-2.390244 2.5454545-3.8802664 2.5454545-.7657059 0-1.4848485-.248337-2.157428-.7450111-.6725794-.496674-1.1123429-1.1537324-1.3192904-1.9711751-.2069476-.8174428-.3104213-2.405765-.3104213-4.7649668v-15.36585363h7.6674061v-1.42793792h-7.6674061v-7.97782705h-.9933481c-.3725056 2.50406504-1.2313378 4.44937177-2.5764967 5.83592018s-2.8662232 2.10051737-4.5631929 2.14190687v1.42793792h3.6940133v14.40354763c0 2.9593496.1396896 5.0288249.4190687 6.2084258.2793792 1.1796008.9830008 2.2091648 2.1108648 3.0886918 1.127864.8795269 2.4368071 1.3192904 3.9268292 1.3192904zm18.1286028 0c2.214339 0 4.050998-.6932742 5.509978-2.0798226s2.18847-3.1869919 2.18847-5.4013304c0-1.4072431-.3932-2.8765706-1.179601-4.4079822-.7864-1.510717-2.938655-3.0628234-6.456762-4.6563193-2.338507-1.0554324-3.921656-1.9970436-4.749446-2.8248337-.848485-.8070954-1.272727-1.7694014-1.272727-2.886918 0-1.0140429.382853-1.9039172 1.148558-2.66962305.765706-.76570584 1.769402-1.14855876 3.011087-1.14855876 1.614191 0 3.01626.67775315 4.206208 2.03325941 1.189949 1.3555063 1.99187 2.9748707 2.405765 4.8580931h1.148559v-7.85365849h-1.148559c-.496674 1.20029564-.900221 1.9556541-1.210643 2.26607539-1.448632-1.80044346-3.280118-2.70066519-5.494457-2.70066519-2.172949 0-3.859571.76053215-5.059866 2.28159645-1.200296 1.52106434-1.800444 3.11973394-1.800444 4.79600884 0 1.759054.558758 3.2387288 1.676275 4.4390244 1.117517 1.2209904 2.95935 2.4626756 5.525499 3.7250555 2.441981 1.2002956 4.087214 2.2246858 4.935698 3.0731707.82779.8484848 1.241685 1.9349593 1.241685 3.2594235 0 1.1382114-.388026 2.1832964-1.164079 3.135255-.776054.9519586-1.950481 1.4279379-3.523282 1.4279379-3.621582 0-6.135994-2.4109387-7.543237-7.232816h-1.210643v8.3503326h1.210643c.351811-1.1589061.807095-2.0487805 1.365853-2.669623 1.821139 1.9246119 3.900961 2.8869179 6.239468 2.8869179zm39.08204 14.6208426v-1.4279379c-1.469327 0-2.473023-.1603844-3.011086-.481153-.538064-.3207687-.864006-.8019217-.977827-1.443459s-.170732-2.4316334-.170732-5.3702882v-9.654102c1.283075 1.2416851 2.643755 2.1781227 4.08204 2.8093126s2.943828.9467849 4.51663.9467849c3.828529 0 6.917221-1.3348115 9.266075-4.0044346 2.348854-2.669623 3.523282-5.9911308 3.523282-9.9645233 0-4.0561714-1.169254-7.3207686-3.507761-9.7937915-2.338507-2.47302294-5.266814-3.70953439-8.784922-3.70953439-1.69697 0-3.305987.3466371-4.827051 1.03991131-1.521065.6932742-2.943829 1.74353289-4.268293 3.15077608 0-1.63488547-.175905-3.03178126-.527716-4.19068739h-.838138c-3.124907.82779009-5.711751 1.3451589-7.760532 1.55210643v1.42793791h.931264c1.324464 0 2.245381.18625275 2.76275.55875835.517368.3725055.812269.9105691.8847 1.6141907.072432.7036215.108648 2.4109386.108648 5.1219512v23.0953437c0 2.835181-.036216 4.5476718-.108648 5.1374722-.072431.5898005-.331116 1.0968219-.776053 1.5210643-.444937.4242425-1.40207.6363637-2.871397.6363637h-.931264v1.4279379zm3.35255-16.2971175c-1.386548 0-2.705839-.3466371-3.957871-1.0399113-1.252033-.6932742-2.436807-1.7228382-3.554324-3.0886918v-15.4589801c1.158906-1.4693274 2.379897-2.5661493 3.662971-3.2904656 1.283075-.72431634 2.638581-1.08647451 4.066519-1.08647451 2.317812 0 4.314856.94161124 5.991131 2.82483371 1.676275 1.8832225 2.514412 4.7287509 2.514412 8.5365854 0 4.3872875-.869179 7.5846267-2.607539 9.5920177-1.738359 2.007391-3.776792 3.0110865-6.115299 3.0110865zm31.414634 1.6762749c2.317813 0 4.459719-.5949741 6.425721-1.7849224 1.966001-1.1899482 3.280118-2.8403547 3.94235-4.9512195h-1.490022c-1.572801 3.3732447-4.242424 5.059867-8.008869 5.059867-2.773097 0-4.858093-1.1226903-6.254989-3.368071-1.396896-2.2453806-2.095344-5.6031042-2.095344-10.0731707 0-.6001478.04139-1.5107169.124169-2.7317073h17.725055c-.103474-2.3592018-1.06578-4.5528456-2.886918-6.58093129-1.821138-2.02808574-4.397635-3.0421286-7.72949-3.0421286-3.538802 0-6.487805 1.32963784-8.847006 3.98891349-2.359202 2.6592757-3.538803 5.9963045-3.538803 10.0110865 0 2.8351811.610495 5.2461197 1.831486 7.232816 1.22099 1.9866962 2.788617 3.5232816 4.702882 4.6097561s3.947524 1.6297117 6.099778 1.6297117zm4.935699-19.0909091h-12.168515c.724317-4.677014 2.969697-7.01552103 6.736142-7.01552103 1.552107 0 2.86105.50184774 3.926829 1.50554323 1.06578 1.0036955 1.59867 2.4161123 1.59867 4.2372506 0 .3725055-.031042.7967479-.093126 1.2727272zm23.312638 18.0665189v-1.4279379h-.869179c-1.324464 0-2.245381-.1862528-2.76275-.5587584-.517369-.3725055-.812269-.9105691-.8847-1.6141906-.072432-.7036216-.108648-2.4109387-.108648-5.1219513v-4.5321507c0-2.2764228.175906-4.0665189.527716-5.3702883.351811-1.3037694 1.148559-2.5609756 2.390244-3.7716186 1.241685-1.21064303 2.307465-1.81596453 3.197339-1.81596453.745012 0 1.30377.51736881 1.676275 1.55210643.538064 1.5314117 1.324465 2.2971175 2.359202 2.2971175.579453 0 1.070954-.2172949 1.474501-.6518847.403548-.4345898.605322-.9519586.605322-1.5521064 0-.88987437-.3932-1.75905397-1.179601-2.60753882s-1.862528-1.27272727-3.228381-1.27272727c-1.510717 0-3.05765.62084257-4.640799 1.86252771-1.583148 1.24168518-2.726533 2.78344418-3.430155 4.62527718-.062084-2.6903178-.3932-4.85291945-.993348-6.48780489-3.145602.99334811-5.691057 1.60384331-7.636364 1.83148558v1.39689581h.651885c1.324464 0 2.245381.1914264 2.76275.5742794.517368.3828529.812269.9209164.8847 1.6141906.072432.6932743.108648 2.405765.108648 5.1374723l-.000249 7.5178076c-.003973 2.7321046-.055627 4.3961614-.154962 4.9921703-.103474.6208425-.419069 1.1019955-.946785 1.4434589-.527716.3414635-1.412417.5121952-2.654102.5121952h-.651885v1.4279379zm-204.0709531 63.5742794v-1.427938c-1.3865484 0-2.3488544-.1759054-2.886918-.5277161-.5380636-.3518108-.8484848-.8691796-.9312638-1.5521065-.0827791-.6829268-.1241686-2.421286-.1241686-5.2150776v-10.5853658c1.3865484-1.6555802 2.7472284-2.8972654 4.08204-3.7250555 1.3348115-.8277901 2.6437546-1.2416851 3.9268292-1.2416851 1.3244642 0 2.4316334.3569845 3.3215078 1.0709534.8898743.713969 1.4227642 1.5728012 1.5986696 2.5764967s.2638581 2.6230599.2638581 4.8580931l-.0002985 7.3968433c-.0049747 2.8730807-.0721331 4.5981536-.2014753 5.1752188-.1345159.6001478-.4759793 1.045085-1.0243903 1.3348115-.5484109.2897266-1.5158906.4345898-2.902439.4345898v1.427938h12.2926829v-1.427938c-1.3037694 0-2.2091648-.1914264-2.7161862-.5742793-.5070215-.382853-.796748-.9209165-.8691796-1.6141907-.0724317-.6932742-.1086475-2.3954176-.1086475-5.1064302v-10.0266075c1.3658537-1.841833 2.7265336-3.218034 4.0820399-4.1286031s2.7058389-1.3658537 4.0509978-1.3658537c1.3244642 0 2.4005913.3104213 3.2283814.9312639.8277901.6208425 1.3399852 1.3658536 1.5365853 2.2350332.1966002.8691796.2949003 2.1626017.2949003 3.8802661v8.4745011c0 3.0421286-.0620843 4.8684405-.1862528 5.4789357s-.4604582 1.0657798-1.0088692 1.3658537c-.5484109.3000739-1.4951958.4501108-2.8403547.4501108v1.427938h12.6962306v-1.427938c-1.4900222 0-2.5092388-.1552106-3.0576497-.4656319-.548411-.3104213-.879527-.7864006-.9933481-1.4279379-.1138212-.6415373-.1707317-2.4419808-.1707317-5.4013304v-7.6363636c0-2.5868441-.1448633-4.4597192-.4345898-5.6186253-.2897266-1.1589061-1.1175167-2.1936437-2.4833703-3.1042129-1.3658537-.9105691-3.0317813-1.3658536-4.9977827-1.3658536-1.7176645 0-3.4042868.4759793-5.059867 1.4279379s-3.2697709 2.3798965-4.8425721 4.2838137c-.5173688-1.9039172-1.4279379-3.3318551-2.7317073-4.2838137s-3.0007391-1.4279379-5.0909091-1.4279379c-1.8418329 0-3.5646711.4449372-5.1685144 1.3348115-1.6038433.8898744-3.0990392 2.2246859-4.4855876 4.0044346 0-2.172949-.30007387-3.9526977-.90022169-5.3392461h-.31042129c-1.92461197.6415373-4.35624538 1.1071692-7.29490022 1.3968958v1.4279379c1.42793792 0 2.41611234.165558 2.96452328.496674.54841094.3311161.8691796.8226165.96230599 1.4745012s.13968958 2.4264597.13968958 5.323725l-.00027552 7.9532597c-.00459203 2.8539472-.06658445 4.5694534-.18597725 5.1465186-.12416852.6001478-.46045824 1.0502587-1.00886918 1.3503326s-1.50554324.4501108-2.8713969.4501108v1.427938zm44.421286-36.1330377c.8898744 0 1.6452328-.3207687 2.2660754-.962306s.9312638-1.4175906.9312638-2.3281597c0-.8898743-.3104212-1.6555802-.9312638-2.2971175s-1.376201-.962306-2.2660754-.962306-1.6504065.3207687-2.2815964.962306c-.63119.6415373-.946785 1.4072432-.946785 2.2971175 0 .9105691.315595 1.6866224.946785 2.3281597.6311899.6415373 1.391722.962306 2.2815964.962306zm7.2017738 36.1330377v-1.427938h-.6518847c-1.3244641 0-2.2453806-.1862527-2.7627494-.5587583-.5173688-.3725055-.8174427-.9105691-.9002217-1.6141907-.082779-.7036215-.1241686-2.4109386-.1241686-5.1219512v-17.7250554h-.6829268c-2.0280857.7243163-4.8839615 1.2727273-8.5676275 1.6452328v1.4279379h.8381375c1.1589061 0 1.9711752.082779 2.4368071.248337.4656319.1655581.8381375.5794531 1.1175166 1.2416852.2793792.6622321.4190688 2.4833703.4190688 5.4634146l-.0001887 8.0469982c-.0028922 2.6273892-.0390451 4.2236966-.1084588 4.788922-.0724316.5898004-.331116 1.0968219-.7760532 1.5210643s-1.4020695.6363636-2.8713969.6363636h-1.0554324v1.427938zm15.4589801 0v-1.427938h-.7450111c-1.3244642 0-2.2453806-.1862527-2.7627494-.5587583-.5173689-.3725055-.8122691-.9105691-.8847007-1.6141907-.0724316-.7036215-.1086475-2.4109386-.1086475-5.1219512v-33.9600887h-.6829268c-.6415373.2897266-1.8159645.5794531-3.5232816.8691796-1.7073171.2897266-3.1921655.4345898-4.4545454.4345898v1.4279379c1.8418329 0 3.0007391.3466371 3.4767184 1.0399114.4759793.6932742.7139689 2.3747228.7139689 5.0443459l-.0002483 25.4912c-.0039734 2.7321046-.0556275 4.3961614-.1549623 4.9921702-.1034738.6208426-.4190688 1.1019956-.9467849 1.443459-.5277162.3414634-1.4124169.5121951-2.654102.5121951h-.8691796v1.427938zm15.2416851 0v-1.427938h-.7450111c-1.3244641 0-2.2453806-.1862527-2.7627494-.5587583-.5173688-.3725055-.812269-.9105691-.8847007-1.6141907-.0661332-.6424371-.1020752-2.1216033-.1078259-4.4374987l-.0008215-34.6445412h-.6829268c-.6415374.2897266-1.8159646.5794531-3.5232816.8691796-1.7073171.2897266-3.1921656.4345898-4.4545455.4345898v1.4279379c1.841833 0 3.0007391.3466371 3.4767184 1.0399114.4759793.6932742.713969 2.3747228.713969 5.0443459v25.1441241c0 2.9386549-.0517369 4.7184036-.1552107 5.3392461-.1034737.6208426-.4190687 1.1019956-.9467849 1.443459s-1.4124169.5121951-2.654102.5121951h-.8691796v1.427938zm8.4745011-36.1330377c.889874 0 1.645233-.3207687 2.266075-.962306.620843-.6415373.931264-1.4175906.931264-2.3281597 0-.8898743-.310421-1.6555802-.931264-2.2971175-.620842-.6415373-1.376201-.962306-2.266075-.962306s-1.650406.3207687-2.281596.962306-.946785 1.4072432-.946785 2.2971175c0 .9105691.315595 1.6866224.946785 2.3281597s1.391722.962306 2.281596.962306zm7.201774 36.1330377v-1.427938h-.651885c-1.324464 0-2.24538-.1862527-2.762749-.5587583-.517369-.3725055-.817443-.9105691-.900222-1.6141907-.082779-.7036215-.124169-2.4109386-.124169-5.1219512v-17.7250554h-.682926c-2.028086.7243163-4.883962 1.2727273-8.5676278 1.6452328v1.4279379h.8381374c1.1589064 0 1.9711754.082779 2.4368074.248337.465632.1655581.838137.5794531 1.117516 1.2416852.27938.6622321.419069 2.4833703.419069 5.4634146v7.6984479c0 2.8351811-.036216 4.5476719-.108647 5.1374723-.072432.5898004-.331116 1.0968219-.776054 1.5210643-.444937.4242424-1.402069.6363636-2.8713965.6363636h-1.0554323v1.427938zm17.104213 1.0243902c3.74575 0 6.943089-1.2261641 9.592017-3.6784922 2.648929-2.4523282 3.973393-5.8203992 3.973393-10.1042129 0-3.8699187-1.303769-7.1189948-3.911308-9.7472284-2.607539-2.6282335-5.825573-3.9423503-9.654102-3.9423503-3.807835 0-7.015521 1.3089431-9.62306 3.9268293-2.607539 2.6178861-3.911308 5.8721359-3.911308 9.7627494 0 4.2010347 1.31929 7.5484109 3.957871 10.0421286s5.830747 3.7405765 9.576497 3.7405765zm0-1.4279379c-2.648929 0-4.708056-.9053954-6.177384-2.7161863-1.469327-1.8107908-2.203991-4.9719142-2.203991-9.4833703 0-4.4907612.719143-7.6829268 2.157428-9.5764966 1.438285-1.8935699 3.512934-2.8403548 6.223947-2.8403548 2.731707 0 4.81153.9519586 6.239468 2.8558758 1.427937 1.9039173 2.141906 5.0909091 2.141906 9.5609756 0 4.5114561-.719142 7.6725795-2.157427 9.4833703-1.438286 1.8107909-3.512935 2.7161863-6.223947 2.7161863zm30.514412.4035477v-1.427938c-1.490022 0-2.509239-.1603843-3.05765-.481153-.54841-.3207686-.879526-.8019216-.993348-1.4434589-.113821-.6415374-.170731-2.4316334-.170731-5.3702883v-10.3680709c1.22099-1.8004435 2.519586-3.1507761 3.895787-4.0509978s2.81966-1.3503326 4.330377-1.3503326c1.324464 0 2.416112.331116 3.274944.9933481.858833.6622321 1.386549 1.4227642 1.583149 2.2815965.1966.8588322.2949 2.2919438.2949 4.2993348l-.000596 8.8539104c-.004569 2.442345-.035413 3.9300659-.09253 4.4631627-.062085.5794531-.320769 1.0864745-.776054 1.5210643-.455284.4345898-1.427937.6518847-2.91796.6518847h-.5898v1.427938h13.006652v-1.427938c-1.469328 0-2.478197-.1603843-3.026608-.481153-.548411-.3207686-.874353-.8019216-.977827-1.4434589-.103474-.6415374-.15521-2.4316334-.15521-5.3702883v-7.9467849c0-2.3592018-.186253-4.1544715-.558759-5.3858093-.372505-1.2313378-1.205469-2.2712491-2.498891-3.1197339-1.293422-.8484849-2.954176-1.2727273-4.982262-1.2727273-1.779748 0-3.487065.4345898-5.121951 1.3037694-1.634885.8691796-3.197339 2.1832964-4.687361 3.9423503-.062085-2.2143385-.331116-3.9630451-.807096-5.2461197h-.838137c-2.379897.7036216-4.708056 1.1796009-6.984479 1.4279379v1.4279379c1.490022 0 2.509239.1603843 3.05765.481153s.879527.796748.993348 1.4279379c.113821.63119.170731 2.4264597.170731 5.3858093l-.000298 7.9268785c-.004975 2.8918314-.072133 4.6213051-.201475 5.1884209-.134516.5898004-.481153 1.0295639-1.039912 1.3192904-.558758.2897266-1.552106.4345898-2.980044.4345898v1.427938z" fill="#ff6112" fill-rule="nonzero" transform="translate(118 10)"/></g></svg>