<svg height="48" viewBox="0 0 384 48" width="384" xmlns="http://www.w3.org/2000/svg"><g fill="#fff" fill-rule="evenodd"><g fill-rule="nonzero" transform="translate(0 1.846154)"><path d="m87.6083916 0c-7.760207 0-14.0979021 6.37708359-14.0979021 14.2002716v15.9071491c0 7.8350413 6.3376951 14.2002716 14.0979021 14.2002716s14.0979024-6.3770836 14.0979024-14.2002716v-15.8952957c0-7.83504141-6.3376954-14.212125-14.0979024-14.212125zm-4.556664 13.7498457c0-2.5010496 2.0354641-4.57537972 4.556664-4.57537972s4.556664 2.03877022 4.556664 4.57537972v17.2347203c0 2.5010495-2.0354641 4.5753797-4.556664 4.5753797-2.4749393 0-4.556664-2.0387702-4.556664-4.5753797z"/><path d="m57.0413575 14.7209741c-2.354866 0-4.2364501.725517-5.5177743 1.5446491.1269781-1.029766.8542161-6.70518133.9811942-7.78175496h13.5289362c.4501949 0 .8080422-.29254718.8542161-.70211323.0808042-1.31061137 0-5.30095492 0-6.95092102 0-.53828681-.2077823-.78402644-.8542161-.78402644-4.3749717 0-14.9603254-.04680755-19.3352971-.04680755-1.0504549 0-1.177433.7372189-1.2928676 1.52124534-.4040211 2.66803029-2.8627783 20.82935926-2.9435825 21.36764606-.0461739.5382868.0461738.7372189.5656296 1.0648718 1.3736718.6553056 4.1902763 1.6967736 4.8367101 1.9893208.727238.3276528 1.1312592.6553057 1.8238668-.1287208 1.8238668-2.0127246 3.2783429-3.1595095 5.5524047-3.1595095 3.7747117 0 6.0141431 2.2467623 5.9910562 5.7573285s-2.6088221 5.5700983-5.760187 5.5700983c-2.5395614 0-3.6939075-.7021132-5.3792527-1.9776189-.7734119-.5733925-1.7892365-1.3574189-2.4356703-1.977619-.6118034-.5382868-1.0158246-.3276528-1.8700407.5733925-1.177433 1.2286982-2.9204956 3.3350379-4.0517547 4.4818228-.5656296.5733925-.6118035.9829585-.0461739 1.6031586 1.2928676 1.4393321 2.6319091 2.586117 4.3749717 3.8265171 2.7473437 1.9308114 6.3719904 2.8552605 9.8581156 2.7850491 7.4455323 0 14.5678477-5.5700983 14.5678477-14.3816194.0115434-7.7583512-4.732819-14.1943892-13.448132-14.1943892z"/><path d="m36.3907318 21.1734195c2.8376806-2.9161688 3.8825169-6.9097975 3.2532405-10.8214455-.6648959-3.99362872-3.383845-7.3665468-7.1357574-9.0881404-3.716293-1.73330513-9.4272735-1.65132448-12.7280065.04684608-3.3007331 1.60447839-5.8772045 5.68008774-6.3877496 6.33593292-.2137165.29278803-.1306045.78467192.2137166 1.06574842.5461644.45674933 3.8350243 3.33778348 4.8798607 4.07560938.5461644.3747686.9973438.3747686 1.4960157-.1639613.6648958-.6558452 1.9234487-2.0612277 2.623964-2.67022684 1.0448363-.86665256 2.3746281-1.14772907 3.217621-1.14772907 1.9590682 0 3.5856884.86665256 4.2149649 2.55311161.5817839 1.5693438.166224 3.5837255-1.2941723 4.5206471-1.1635678.784672-3.2532405 1.1125945-4.5474128 1.3116904-1.8403368.245942-1.8759562.9837678-1.9590682 1.6513245-.1306045 1.1477291-.1662239 3.4548987-.0831119 4.8602812.0831119 1.0657485 1.3772842 1.4405171 2.623964 1.6044784 1.2466797.2108074 2.2558967.1639613 3.3363524.5738646 1.8403368.6558452 2.8376806 2.8810342 2.5408521 4.7314545-.2968285 1.8972664-2.0421802 3.1269761-3.9181363 3.3729181-2.0065608.2459419-3.7519124-1.0306139-5.0104653-2.4242849-.6292764-.7026913-1.7572248-1.9792471-2.2084041-2.5062655-.3324479-.3747687-.8786124-.2108074-1.3297917.0468461-.7123885.4099032-5.1766893 3.4548987-5.7940926 3.911648-.3324479.3279226-.4155599.6207106-.1662239.9837678.8786124 1.4405171 1.9234487 2.9981494 3.1701285 4.4386665 1.2941723 1.5224977 3.0039045 2.7170729 4.8442413 3.5837255 5.841585 2.7170729 13.3097904.9837677 17.2754193-3.9936287 4.0487408-5.0359541 3.6213078-12.3673663-1.1279484-16.8528789z"/><path d="m15.1048951 24.1801633v-5.0644971c0-.6673219-.3234082-1.1678134-.8085205-1.1678134h-4.98972636v-5.7794848c0-.4647421-.3234082-.9175677-.77386961-1.0486488s-.97022457.0476658-1.25898189.4170762l-7.05722875 9.4616721c-.28875732.3813268-.28875732.8818183 0 1.2512287l7.05722875 9.5093379c.20790527.2979116.56596434.4647421.88937253.4647421.12705322 0 .24255615 0 .32340819-.0476658.45046141-.1310811.77386961-.5839067.77386961-1.0486488v-5.6484038h4.58546613c.9817749 0 1.2589819-.5839067 1.2589819-1.2988945z" opacity=".6"/></g><path d="m113.711538 16.4423077c-1.615392-.6538494-2.951917-1.5769171-4.009615-2.7692308-1.057698-1.1923136-1.913458-2.5961457-2.567308-4.21153844.384618-1.03846154 1-1.91345798 1.846154-2.625.846158-.71154202 1.798072-1.31730519 2.855769-1.81730769 1.057698-.5000025 2.182687-.90384462 3.375-1.21153846 1.192314-.30769385 2.346149-.57692193 3.461539-.80769231.23077.07692346.346154.07692346.346154 0 0-.07692308.096153-.03846231.288461.11538462 1.384623-.42307904 2.98076-.83653645 4.788462-1.24038462 1.807701-.40384817 3.730759-.5480775 5.769231-.43269231.26923-.15384692.596152-.24038452.980769-.25961538.384617-.01923087.788461-.02884616 1.211538-.02884616.423079 0 .826921-.00961528 1.211539-.02884615.384617-.01923087.711537-.08653788.980769-.20192308.23077.26923212.576921.43269202 1.038462.49038462.46154.05769259.942305.25961365 1.442307.60576923.153847.03846173.153847-.02884529 0-.20192308s-.134616-.29807654.057693-.375c.500002 0 .942305.11538346 1.326923.34615385.384617.23077038.740383.49038317 1.067307.77884615.326925.28846298.634614.54807577.923077.77884616.288463.23077038.605768.34615384.951923.34615384.346156.42307904.759613.81730587 1.240385 1.18269231s.942305.74038269 1.384615 1.125.807691.80769 1.096154 1.26923077.432692.98076635.432692 1.55769231c-.038461.23077038.038461.36538442.23077.40384615.192307.03846173.326922.15384519.403846.34615385.038462 1.42308402-.18269 2.65384092-.663462 3.69230772-.480771 1.0384667-1.086534 1.9903803-1.817307 2.8557692-.73077.8653889-1.509612 1.6826885-2.336539 2.4519231s-1.586535 1.5961494-2.278846 2.4807692c.461541.576926.990382 1.1057668 1.586538 1.5865385.596157.4807716 1.20192.9519207 1.817308 1.4134615s1.20192.9519205 1.759616 1.4711539c.557695.5192333 1.028844 1.1057659 1.413461 1.7596153.115385.2307704.365383.384615.75.4615385.115385.4615408.278845.9326899.490385 1.4134615.211539.4807717.41346.9423055.605769 1.3846154s.307692.8365368.346154 1.1826923c.038461.3461556-.057691.6346143-.288462.8653846.269232.153847.423077.3942292.461539.7211539.038461.3269247.038461.5865375 0 .7788461-.846158 1.0384668-1.423076 1.7692287-1.73077 2.1923077-.307693.4230791-.53846.7307683-.692307.923077-.153847.1923086-.307692.3653838-.461539.5192307-.153847.153847-.499997.4615362-1.038461.923077-2.038472 1.2307753-4.163451 2.3365335-6.375 3.3173076-2.21155.9807742-4.509604 1.6442291-6.894231 1.9903847-.192309.2692321-.471152.4903837-.836538.6634615-.365387.1730778-.778844.3173071-1.240385.4326923s-.951921.2115381-1.471154.2884615c-.519233.0769231-.990382.1538458-1.413461.2307693-.192309-.0769235-.298077-.2019222-.317308-.375s-.124999-.2980766-.317308-.375c-.038462.4615407-.240383.701923-.605769.7211538-.365387.0192309-.817305-.0673067-1.355769-.2596154-.538465-.1923086-1.096151-.4615367-1.673077-.8076923-.576926-.3461555-1.076921-.6730754-1.5-.9807692-.192309.3461556-.432691.7115365-.721154 1.0961538-.288463.3846174-.586537.6538454-.894231.8076924-.538464-.0769235-.932691-.1346152-1.182692-.173077-.250001-.0384617-.490384.0576912-.721154.2884616-.307694-.153847-.538461-.3173069-.692308-.4903846l-.461538-.5192308c-.153847-.1730778-.326922-.3269224-.519231-.4615385-.192309-.134616-.480767-.2596148-.865385-.375.076924-.1923086.019232-.4903826-.173076-.8942307-.192309-.4038482-.461537-.6442304-.807693-.7211539.192309-.3076938.115387-.7019207-.230769-1.1826923s-.615384-1.0288431-.807692-1.6442308c.038461-.2692321.067307-.5480755.086538-.8365384.019231-.288463.057692-.5576911.115385-.8076923.057692-.2500013.14423-.4711529.259615-.6634616.115385-.1923086.307691-.3269227.576923-.4038461-.038461-.5000025-.192306-.980767-.461538-1.4423077.346155-.2692321.576922-.6057672.692307-1.0096154.115386-.4038482.221154-.8173056.317308-1.2403846.096154-.4230791.221153-.8365365.375-1.2403846.153847-.4038482.403845-.7403833.75-1.0096154-.076923-.1153852-.153846-.2115381-.230769-.2884616-.076924-.0769234-.115385-.2115375-.115385-.4038461.576923-.9615385.980768-1.7788428 1.211539-2.4519231.23077-.6730803.413461-1.3269199.548077-1.9615385.134616-.6346185.278845-1.317304.432692-2.0480769s.461536-1.6538406.923077-2.7692307c-.038462-.6923112.03846-1.3076897.230769-1.8461539s.39423-1.0673051.605769-1.5865385c.21154-.5192333.375-1.0673048.490385-1.6442307.115385-.576926.096155-1.2499962-.057692-2.0192308-.65385.0769235-1.124999.3076904-1.413462.6923077s-.471153.9038429-.548077 1.5576923c-.346154.3076939-.788459.4519232-1.326923.4326923s-1.019231.0480762-1.442308.2019231zm25.384616 11.1346154c-1.461546-.8076964-2.798071-1.2884608-4.009616-1.4423077-1.211544-.1538469-2.365379-.1442317-3.461538.0288461s-2.144226.41346-3.144231.7211539c-1.000005.3076938-1.999995.5384608-3 .6923077-.500002 1.3076988-1.019228 2.7499921-1.557692 4.3269231-.538464 1.5769309-1.057692 3.1153771-1.557692 4.6153846 1.384622-.1923087 2.65384-.4807673 3.807692-.8653846 1.153852-.3846174 2.269225-.8173053 3.346154-1.298077 1.076928-.4807716 2.13461-.961536 3.173077-1.4423077 1.038466-.4807716 2.115379-.9326902 3.230769-1.3557692.115385-.4615408.365383-.8269217.75-1.0961538.384617-.2692322.769229-.5288449 1.153846-.7788462.384617-.2500012.711537-.5288446.980769-.8365385.269232-.3076938.365385-.7307665.288462-1.2692307zm-4.038462-18.05769233c-2.384627-.07692346-4.730757.13461288-7.038461.63461543-2.307704.5000025-4.249992 1.2307644-5.826923 2.1923076.769234.6538495 1.567303 1.2307668 2.39423 1.7307693.826928.5000025 1.451921 1.1730727 1.875 2.0192307 1.846164-.7307728 3.461532-1.6634558 4.846154-2.7980769 1.384616-1.134621 2.63461-2.3942238 3.75-3.77884613zm23.711539 28.78846153c-.423079 1.5384692-.798076 2.7019191-1.125 3.4903846-.326925.7884655-.817305 1.605765-1.471154 2.4519231-.500003-.0769235-.846153-.0192317-1.038462.1730769-.192308.1923087-.403845.3653839-.634615.5192308-.346156.0769235-.596153.0769235-.75 0s-.288461-.1634611-.403846-.2596154-.259615-.1923072-.432692-.2884615c-.173078-.0961544-.432691-.1442308-.778847-.1442308-.076923-.3076938-.163461-.5961525-.259615-.8653846s-.355767-.365385-.778846-.2884616c.076923-.3076938.096154-.5673066.057692-.7788461s-.086538-.4038453-.144231-.5769231c-.057692-.1730778-.105769-.346153-.14423-.5192308-.038462-.1730777-.019232-.3942294.057692-.6634615-.192309 0-.346153-.134614-.461539-.4038461-.115385-.2692322-.249999-.5384602-.403846-.8076924.115385-.6923111.230769-1.3461507.346154-1.9615384s.259615-1.192305.432692-1.7307692c.173078-.5384643.317308-1.0769204.432693-1.6153847.115385-.5384642.057693-1.0961509-.173077-1.6730769.153847.1153852.26923.0865393.346154-.0865384.076923-.1730778.134615-.4038448.173077-.6923077.038461-.288463.057692-.5769217.057692-.8653847 0-.2884629-.019231-.5288451-.057692-.7211538.384617-1.000005.701921-2.0288409.951923-3.0865385.250001-1.0576976.480768-2.105764.692307-3.1442307.21154-1.0384668.432692-2.0576873.663462-3.0576923s.53846-1.9230727.923077-2.7692308c.423079-.0769235.894228-.028847 1.413461.1442308.519234.1730777.836538.3942294.951923.6634615 1.000005-.7692346 1.884612-1.7019176 2.653847-2.7980769.769234-1.0961594 1.557688-2.1634564 2.365384-3.2019231.807697-1.0384667 1.701918-1.9615344 2.682693-2.76923077.980774-.80769635 2.221146-1.28846077 3.721153-1.44230769.769235.57692596 1.624996 1.16345856 2.567308 1.75961536s1.721151 1.3749952 2.336539 2.3365385c.307693.1538469.567306.3173068.778846.4903846.211539.1730778.471152.3557683.778846.5480769v.6923077c.461538.4230791.836537.9134588 1.125 1.4711539s.548076 1.1538429.778846 1.7884615l.692308 1.9038462c.23077.6346185.499998 1.2403817.807692 1.8173076-.076923.1923077-.115385.3557686-.115385.4903847 0 .134616.028846.2788453.086539.4326923.057692.1538469.105769.3076915.144231.4615384.038461.153847.038461.3653833 0 .6346154-.115386 1.6923162-.663457 3.0576871-1.644231 4.0961539-.980774 1.0384667-2.163455 1.8942274-3.548077 2.5673077-1.384622.6730802-2.865385 1.2403823-4.442308 1.701923-1.576931.4615408-2.999993.9615358-4.269231 1.5 0 .153847.067307.2307693.201924.2307693.134616 0 .182692.0961528.14423.2884615.923082.576926 1.653844 1.0384598 2.192308 1.3846154s1.048075.6346142 1.528846.8653846c.480772.2307704.999997.4326914 1.557692.6057692.557696.1730778 1.336534.3749989 2.336539.6057693 1.000005.2307703 1.778843.4134608 2.336538.5480769.557695.134616 1.067306.2499995 1.528847.3461538.46154.0961544.932689.1730767 1.413461.2307693s1.163457.1249996 2.048077.201923c.346156.3461556.64423.759613.894231 1.2403847.250001.4807716.413461.961536.490384 1.4423076.076924.4807717.096154.9423055.057693 1.3846154-.038462.4423099-.173076.7980756-.403846 1.0673077.038461.1153852.124999.1634617.259615.1442308s.278845-.0096156.432692.0288461c-.23077.153847-.423076.3461527-.576923.5769231l-.461538.6923077c-.153847.2307704-.326922.4326915-.519231.6057692-.192309.1730778-.461537.278846-.807692.3173077-1.192314.4615408-2.692299.4903867-4.5.0865385-1.807693-.4038482-4.09614-1.1442254-6.865385-2.2211538-1.384622-.5384643-2.509611-1.0096134-3.375-1.4134616s-1.615381-.8076903-2.25-1.2115384c-.634619-.4038482-1.211536-.8365362-1.730769-1.298077-.519234-.4615407-1.144227-1.0192275-1.875-1.6730769zm8.25-19.7884615c-.423079.6153877-.894228 1.1730744-1.413462 1.6730769-.519233.5000025-1.019228 1.0096128-1.5 1.5288461-.480771.5192334-.913459 1.0961507-1.298077 1.7307693-.384617.6346185-.653845 1.3749957-.807692 2.2211538 1.346161-.1538461 2.749993-.5288432 4.211538-1.125 1.461546-.5961568 2.846148-1.1634588 4.153847-1.7019231-.153847-1.1923136-.567305-2.1538425-1.240385-2.8846153-.67308-.7307729-1.374996-1.2115373-2.105769-1.4423077zm48.057692 8.4807692c-.038462.4615408 0 .9038462.115385 1.3269231.115385.423079.259614.8365364.432692 1.2403846s.336538.8173056.490385 1.2403846.26923.8461517.346153 1.2692308c.076924.5384642.076924 1.1249968 0 1.7596154-.076923.6346185-.211537 1.249997-.403846 1.8461538-.192308.5961568-.442306 1.134613-.75 1.6153846-.307694.4807717-.673074.8365373-1.096154 1.0673077-.538464.6923112-1.192303 1.2307673-1.961538 1.6153846s-1.480766.8461512-2.134615 1.3846154c-.423079.2692321-.894229.4615379-1.413462.5769231s-1.048074.2307686-1.586538.3461538c-.423079.2307704-.923074.4711526-1.5.7211539-.576926.2500012-1.173074.4807682-1.788462.6923077s-1.230766.3653841-1.846154.4615384c-.615387.0961544-1.153844.1250002-1.615384.0865385-1.153852.423079-2.278841.7019224-3.375.8365385-1.09616.134616-2.374993.0480784-3.836539-.2596154-1.384622.1923086-2.663456.1346169-3.836538-.1730769-1.173083-.3076939-2.211534-.7980736-3.115385-1.4711539s-1.692304-1.4807645-2.365385-2.4230769c-.67308-.9423124-1.221151-1.9326871-1.64423-2.9711539-.307694-2.1923186-.230772-4.1826833.230769-5.9711538s1.124996-3.4423001 1.990385-4.9615385c.865388-1.5192383 1.855763-2.9230705 2.971153-4.2115384 1.115391-1.288468 2.192303-2.5480708 3.23077-3.7788462.23077.0769235.41346.0673082.548077-.0288461.134616-.0961544.259614-.2307684.375-.4038462.115385-.1730778.240383-.3365377.375-.4903846.134616-.1538469.298075-.2499998.490384-.2884615.269232-.576926.663459-1.009614 1.182692-1.298077.519234-.288463.932691-.7019204 1.240385-1.2403846.346156-.0769234.634614-.1923069.865385-.3461538.23077-.153847.451922-.3269221.663461-.5192308.21154-.1923087.432691-.3749991.663462-.5480769.23077-.1730778.499998-.2980769.807692-.375v-.6346154c.692311-.3076939 1.201922-.6634595 1.528846-1.0673077.326925-.4038482.721152-.8942279 1.182693-1.4711538.346155-.0384618.624998-.0576924.836538-.0576924s.528844-.0384611.951923-.11538457c.307694-.53846423.586537-.94230635.836539-1.21153846.250001-.26923212.624997-.55769077 1.125-.86538462.46154.23077039.971151.384615 1.528846.46153847.557695.07692346 1.048074.32692096 1.471154.75.038461.3846173.153845.68269125.346153.89423078.192309.2115395.403845.4038453.634616.5769231.23077.1730777.451922.3557682.663461.5480769.21154.1923086.355769.4615367.432693.8076923.153847.0384617.259615.0192311.317307-.0576923.057693-.0769235.163461-.0961541.317308-.0576923.115385.5384642.249999.8942299.403846 1.0673077s.307692.5096154.461539 1.0096154c-.192309.3846173-.336538.7788441-.432693 1.1826923-.096154.4038481-.336536.7019221-.721154.8942307-.038461.2692321.038461.4134615.23077.4326923.192308.0192309.307692.1249991.346154.3173077.038461.3461556-.01923.5961531-.173077.75.923081 1.5000075 1.749996 3.0865301 2.480769 4.7596154s1.557688 3.2596079 2.480769 4.7596154zm-7.211538 5.4807692c.153847-.423079.355768-.7692294.605769-1.0384615s.39423-.6730742.432692-1.2115385c-.192309-.3076938-.307692-.548076-.346154-.7211538-.038461-.1730778-.057692-.4519212-.057692-.8365385-.846158-1.1923136-1.57692-2.471147-2.192308-3.8365384-.615387-1.3653915-1.307688-2.6442248-2.076923-3.8365385-.076923.1538469-.211537.3076915-.403846.4615385-.192309.1538469-.403845.1153857-.634615-.1153847-.076924.3076939-.211538.5288455-.403846.6634616-.192309.134616-.403845.1923078-.634616.1730769-.23077-.0192309-.471152-.0769226-.721154-.1730769-.250001-.0961543-.471153-.2211531-.663461-.375-1.11539.8846198-2.230764 1.7499958-3.346154 2.5961538-1.11539.8461581-2.11538 1.8269175-3 2.9423077-.153847.0769235-.25.1057693-.288462.0865385-.038461-.0192309-.153845.009615-.346153.0865384-.307694.7307729-.682691 1.3942278-1.125 1.9903847-.44231.5961568-.874998 1.20192-1.298077 1.8173077-.423079.6153876-.78846 1.2692273-1.096154 1.9615384-.307694.6923112-.480769 1.4999954-.519231 2.4230769.653849.5384643 1.423073.8653841 2.307692.9807693.88462.1153852 1.798073.1346157 2.740385.0576923.942312-.0769231 1.86538-.2019222 2.769231-.375.90385-.1730778 1.74038-.2596154 2.509615-.2596154 1.615393-.3846173 2.999994-.8942276 4.153846-1.5288462 1.153852-.6346185 2.365378-1.2788428 3.634616-1.9326923zm44.365384-5.4807692c-.038461.4615408 0 .9038462.115385 1.3269231.115385.423079.259614.8365364.432692 1.2403846s.336538.8173056.490385 1.2403846.26923.8461517.346154 1.2692308c.076923.5384642.076923 1.1249968 0 1.7596154-.076924.6346185-.211538 1.249997-.403847 1.8461538-.192308.5961568-.442306 1.134613-.75 1.6153846-.307693.4807717-.673074.8365373-1.096153 1.0673077-.538465.6923112-1.192304 1.2307673-1.961539 1.6153846-.769234.3846173-1.480766.8461512-2.134615 1.3846154-.423079.2692321-.894228.4615379-1.413462.5769231-.519233.1153852-1.048074.2307686-1.586538.3461538-.423079.2307704-.923074.4711526-1.5.7211539-.576926.2500012-1.173074.4807682-1.788462.6923077-.615387.2115395-1.230766.3653841-1.846154.4615384-.615387.0961544-1.153843.1250002-1.615384.0865385-1.153852.423079-2.278841.7019224-3.375.8365385-1.09616.134616-2.374993.0480784-3.836539-.2596154-1.384622.1923086-2.663455.1346169-3.836538-.1730769-1.173083-.3076939-2.211534-.7980736-3.115385-1.4711539-.90385-.6730803-1.692304-1.4807645-2.365384-2.4230769-.673081-.9423124-1.221152-1.9326871-1.644231-2.9711539-.307694-2.1923186-.230772-4.1826833.230769-5.9711538s1.124996-3.4423001 1.990385-4.9615385c.865389-1.5192383 1.855763-2.9230705 2.971154-4.2115384 1.11539-1.288468 2.192302-2.5480708 3.230769-3.7788462.23077.0769235.413461.0673082.548077-.0288461.134616-.0961544.259615-.2307684.375-.4038462s.240384-.3365377.375-.4903846.298076-.2499998.490384-.2884615c.269232-.576926.663459-1.009614 1.182693-1.298077.519233-.288463.93269-.7019204 1.240384-1.2403846.346156-.0769234.634614-.1923069.865385-.3461538.23077-.153847.451922-.3269221.663461-.5192308.21154-.1923087.432692-.3749991.663462-.5480769s.499998-.2980769.807692-.375v-.6346154c.692311-.3076939 1.201922-.6634595 1.528846-1.0673077.326925-.4038482.721152-.8942279 1.182693-1.4711538.346155-.0384618.624999-.0576924.836538-.0576924.21154 0 .528844-.0384611.951923-.11538457.307694-.53846423.586537-.94230635.836539-1.21153846.250001-.26923212.624997-.55769077 1.125-.86538462.46154.23077039.971151.384615 1.528846.46153847.557695.07692346 1.048075.32692096 1.471154.75.038461.3846173.153845.68269125.346154.89423078.192308.2115395.403845.4038453.634615.5769231.23077.1730777.451922.3557682.663461.5480769.21154.1923086.355769.4615367.432693.8076923.153847.0384617.259615.0192311.317307-.0576923.057693-.0769235.163461-.0961541.317308-.0576923.115385.5384642.249999.8942299.403846 1.0673077s.307692.5096154.461539 1.0096154c-.192309.3846173-.336538.7788441-.432693 1.1826923-.096154.4038481-.336536.7019221-.721153.8942307-.038462.2692321.03846.4134615.230769.4326923.192309.0192309.307692.1249991.346154.3173077.038461.3461556-.01923.5961531-.173077.75.923081 1.5000075 1.749996 3.0865301 2.480769 4.7596154s1.557688 3.2596079 2.480769 4.7596154zm-7.211538 5.4807692c.153847-.423079.355768-.7692294.605769-1.0384615s.394231-.6730742.432692-1.2115385c-.192308-.3076938-.307692-.548076-.346154-.7211538-.038461-.1730778-.057692-.4519212-.057692-.8365385-.846158-1.1923136-1.57692-2.471147-2.192308-3.8365384-.615387-1.3653915-1.307688-2.6442248-2.076923-3.8365385-.076923.1538469-.211537.3076915-.403846.4615385-.192308.1538469-.403845.1153857-.634615-.1153847-.076924.3076939-.211538.5288455-.403846.6634616-.192309.134616-.403845.1923078-.634616.1730769-.23077-.0192309-.471152-.0769226-.721154-.1730769-.250001-.0961543-.471152-.2211531-.663461-.375-1.11539.8846198-2.230764 1.7499958-3.346154 2.5961538-1.11539.8461581-2.11538 1.8269175-3 2.9423077-.153847.0769235-.25.1057693-.288461.0865385-.038462-.0192309-.153846.009615-.346154.0865384-.307694.7307729-.68269 1.3942278-1.125 1.9903847-.44231.5961568-.874998 1.20192-1.298077 1.8173077-.423079.6153876-.78846 1.2692273-1.096154 1.9615384-.307694.6923112-.480769 1.4999954-.519231 2.4230769.65385.5384643 1.423073.8653841 2.307692.9807693.88462.1153852 1.798073.1346157 2.740385.0576923.942312-.0769231 1.86538-.2019222 2.769231-.375s1.740381-.2596154 2.509615-.2596154c1.615393-.3846173 2.999994-.8942276 4.153846-1.5288462 1.153852-.6346185 2.365379-1.2788428 3.634616-1.9326923zm45.519231 9.75c-1.846164.0769235-3.471147.0384623-4.875-.1153846-1.403854-.1538469-2.77884-.5192279-4.125-1.0961538-.076924-.0384618-.153846-.1346146-.23077-.2884616-.076923-.1538469-.153845-.2692304-.230769-.3461538-.23077-.1153852-.509614-.1634617-.836538-.1442308-.326925.0192309-.605768-.009615-.836539-.0865384-.307694-.153847-.788458-.4519209-1.442308-.8942308-.653849-.4423099-1.249997-.8557673-1.788461-1.2403846-.692311-.5384643-1.346151-1.0769231-1.961539-1.6153846-.615387-.5384643-1.153843-1.1153816-1.615384-1.7307693-.115385-.1538469-.26923-.2403845-.461539-.2596154-.192308-.0192308-.365383-.0673073-.51923-.1442307-1.115391.6923111-2.057689 1.5576871-2.826923 2.5961538-.769235 1.0384667-1.499997 2.0961485-2.192308 3.1730769-.692311 1.0769285-1.423073 2.0961491-2.192308 3.0576923-.769234.9615433-1.749994 1.6923052-2.942308 2.1923077-.346155 0-.653844-.0576917-.923076-.1730769-.269233-.1153852-.51923-.2596145-.75-.4326923-.230771-.1730778-.461538-.3365377-.692308-.4903846-.230771-.1538469-.480768-.2692304-.75-.3461539 0-.4615407-.086538-.8846134-.259616-1.2692307-.173077-.3846173-.346153-.7499983-.51923-1.0961539-.173078-.3461555-.298077-.6826906-.375-1.0096154-.076924-.3269247-.000001-.6442292.230769-.951923-.23077-.2307704-.576921-.4807679-1.038462-.75.230771-.2307704.336539-.4423068.317308-.6346154-.019231-.1923077-.067307-.3846144-.144231-.5769231-.076923-.1923086-.14423-.403845-.201923-.6346154-.057692-.2307704-.009616-.4615373.144231-.6923077.192309 0 .423076-.0384611.692308-.1153846-.230771-.3076938-.336539-.4903843-.317308-.5480769s-.028846-.1442302-.144231-.2596154c-.076923-.2307704-.038462-.3749997.115385-.4326923s.307691-.1249996.461538-.2019231c.153847-1.8846248.480767-3.6346073.98077-5.25.500002-1.6153927 1.057689-3.1730694 1.673076-4.6730769.615388-1.5000075 1.221151-3.0192231 1.817308-4.5576923s1.086537-3.1922989 1.471154-4.9615385c.423079-.423079.759614-.923074 1.009615-1.5.250002-.5769259.51923-1.1538432.807693-1.7307692s.615382-1.144228.980769-1.7019231c.365386-.55769507.874997-1.00961363 1.528846-1.35576921.538464.03846173 1.019229.18269106 1.442308.43269231s.942304.35576942 1.557692.31730769c.115385.19230866.221153.38461441.317308.57692311.096154.1923086.221153.3846144.375.576923l.865384-.1730769c.423079.3461556.798076.7788436 1.125 1.2980769.326925.5192334.548077 1.0673049.663462 1.6442308.115385.576926.096155 1.1249974-.057692 1.6442308-.153847.5192333-.519228.9326908-1.096154 1.2403846.038461.1923087.048077.336538.028846.4326923s-.048077.1826919-.086539.2596154c-.038461.0769235-.057692.1538458-.057692.2307692 0 .0769235.057692.1923069.173077.3461539-.769235.5769259-1.346152 1.3846102-1.730769 2.4230769s-.596154 1.9615344-.634616 2.7692308c.461541-.4615408.971152-.9134594 1.528847-1.3557693s1.134612-.8749979 1.730769-1.2980769 1.173074-.8269211 1.730769-1.2115385c.557695-.3846173 1.067305-.7692288 1.528846-1.1538461 1.269237-1.1538519 2.490379-2.0865349 3.663462-2.7980769 1.173083-.7115421 2.413455-1.509611 3.721154-2.3942308.307693-.0769235.548076-.0865388.721153-.0288462.173078.0576926.355769.1249997.548077.2019231 0-.2307704-.067307-.3653844-.201923-.4038461-.134616-.0384618-.182692-.1923064-.14423-.4615385.576925-.1538469 1.07692-.3365374 1.5-.5480769.423079-.2115395.884612-.4134606 1.384615-.6057692.346155.3461555.673075.7019212.980769 1.0673076.307694.3653865.730767.5865381 1.269231.6634616.192309.423079.423076.7403835.692308.9519231.269232.2115395.53846.4134605.807692.6057692.269232.1923086.509614.4230756.721154.6923077.211539.2692321.336538.6923048.375 1.2692308-.153847.2692321-.317307.5576907-.490385.8653846-.173078.3076938-.336538.6730748-.490384 1.0961538-.769235.6923112-1.548073 1.3076896-2.336539 1.8461539-.788465.5384642-1.586534 1.0576898-2.394231 1.5576923-.807696.5000025-1.634611.9999975-2.480769 1.5s-1.711534 1.0961504-2.596154 1.7884615c-.192308.2692321-.432691.5096143-.721154.7211539-.288463.2115395-.586537.4230758-.89423.6346153-.307694.2115396-.596153.4326912-.865385.6634616s-.480768.4999984-.634615.8076923c-.115386.0384617-.230769.0576923-.346154.0576923s-.230769.0192306-.346154.0576923c-.115385.2692321-.298076.4807685-.548077.6346154s-.413461.3653833-.490385.6346154c.576926 1.2307754 1.326919 2.1730736 2.25 2.826923.923082.6538495 1.961533 1.1249986 3.115385 1.4134616s2.403839.4423076 3.75.4615384c1.346161.0192309 2.749993.0288462 4.211538.0288462.153847-.0384617.221154-.1249993.201924-.2596154-.019231-.134616.067306-.1826925.259615-.1442308.923081.3076939 1.634613.7403819 2.134615 1.298077.500003.5576951 1.096151 1.1057665 1.788462 1.6442307-.076924 1.4615458-.519227 2.6730722-1.326923 3.6346154-.807697.9615433-1.884609 1.7307664-3.230769 2.3076923zm18.576923 1.4423077c-1.076929.3461556-2.249994.692306-3.519231 1.0384616-1.269237.3461555-2.538455.5192307-3.807692.5192307-1.923087 0-3.442303-.4807644-4.557693-1.4423077-.192308-.423079-.365384-.7115377-.519231-.8653846-.115385-.1538469-.221153-.3173068-.317307-.4903846-.096155-.1730778-.163462-.41346-.201923-.7211538-.461541-.5384643-.826922-1.163458-1.096154-1.875-.269232-.7115421-.451923-1.442304-.548077-2.1923077-.096154-.7500038-.115385-1.5096116-.057692-2.2788462.057692-.7692346.182691-1.4999965.375-2.1923077.076923-.1538469.125-.3076915.14423-.4615384.019231-.153847.048077-.3269222.086539-.5192308.153847-.6153877.317307-1.2115356.490384-1.7884615.173078-.576926.41346-1.076921.721154-1.5-.153847-.3461556-.153847-.7307672 0-1.1538462s.326922-.8076906.519231-1.1538462c.538464-1.4615457.990383-2.7019179 1.355769-3.7211538.365387-1.0192359.740383-2.0288412 1.125-3.0288462.65385-1.7307778 1.269228-3.4422992 1.846154-5.1346153.576926-1.6923162 1.096152-3.519221 1.557692-5.48076927.307694-.19230865.538461-.32692269.692308-.40384615.230771-.07692346.423076-.1346152.576923-.17307693.692311.34615558 1.499996.68269068 2.423077 1.00961539.923082.32692471 1.692305.49038466 2.307692.49038466.307694.1923086.5.3365379.576924.4326923.076923.0961543.153845.1826919.230769.2596153.423079.5000025.78846 1.0096128 1.096154 1.5288462.307693.5192334.403846 1.2019188.288461 2.0480769-.23077.3461556-.403845.5192308-.519231.5192308-.192308.7692346-.394229 1.4230742-.605769 1.9615385-.211539.5384642-.432691 1.0769203-.663461 1.6153846-.269232.5769259-.51923 1.1538432-.75 1.7307692-.230771.576926-.423077 1.2884573-.576923 2.1346154-.153847.1923086-.259616.3653838-.317308.5192308-.057693.1538469-.125.3269221-.201923.5192307-.076924.1923087-.163461.3942297-.259616.6057693-.096154.2115395-.240383.39423-.432692.5480769-.115385 1.000005-.298076 1.8076892-.548077 2.4230769s-.509614 1.2307662-.778846 1.8461538c-.461541 1.1153902-.874998 2.2307637-1.240385 3.3461539-.365386 1.1153902-.586538 2.3846083-.663461 3.8076923.192309-.0769235.374999-.1153846.548077-.1153846h.490384c.346156 0 .749998.0576917 1.211539.1730769 1.153852-.6153877 2.413455-.9807686 3.778846-1.0961538s2.721147-.1923075 4.067308-.2307693h1.615384c.538465 0 1.03846-.0384611 1.5-.1153846.346156.1923087.567308.2980768.663462.3173077s.240384.0288462.432692.0288462c.269232 0 .499999.0192305.692308.0576923.461541.423079.903844.7307682 1.326923.9230769.423079.1923086.865382.3653838 1.326923.5192308.423079.1538469.836536.3173068 1.240385.4903846.403848.1730778.798075.41346 1.182692.7211538l.403846 2.4807693c.269232.3461555.384616.5769225.346154.6923076 0 .3076924-.076922.5384608-.230769.6923077l.115384.6346154c-.576926.1153852-.971152.2499993-1.182692.4038462s-.413461.3269221-.605769.5192307c-.307694.0384618-.528846.0576924-.663462.0576924h-.375c-.538464 0-1.192304.0961528-1.961538.2884615-1.038467-.3461556-2.115379-.5192308-3.230769-.5192308-.423079 0-.865383.0192306-1.326924.0576923l-1.384615.1153846c-.461541.0769235-.93269.1346152-1.413461.173077-.480772.0384617-.971152.0576923-1.471154.0576923zm34.730769-14.4807692c-.269232.2307704-.499999.5096137-.692308.8365385-.192309.3269247-.384614.6634598-.576923 1.0096153-.192309.4230791-.403845.8269212-.634615 1.2115385-.230771.3846173-.519229.7307677-.865385 1.0384615-.192309.576926-.384614 1.0288446-.576923 1.3557693-.192308.3269247-.499998.7019209-.923077 1.125-.384617 1.5384692-1.288454 3.2115294-2.711538 5.0192307-.038462.3461556-.14423.6826907-.317308 1.0096154s-.355768.6442293-.548077.9519231c-.076923.1153852-.153846.2403839-.230769.375-.076924.1346161-.134615.2403842-.173077.3173077l-.115385.5769231c-.192308.3076938-.403845.5769219-.634615.8076923l-.634616.6346154c-.076923.1153852-.211537.2692298-.403846.4615384l-.865384.3461539c-2.807707-.3846173-4.519228-1.8846023-5.134616-4.5l.057693-.5769231c.076923-.1923087.14423-.3942297.201923-.6057692.057692-.2115396.124999-.4326912.201923-.6634616.153847-.5384642.336537-1.0769204.548077-1.6153846.211539-.5384642.528844-1.0192286.951923-1.4423077.076923-.2692321.249998-.7019201.519231-1.2980769.269232-.5961568.730766-1.4903787 1.384615-2.6826923.538464-.9230816.961537-1.6538435 1.269231-2.1923077s.557691-.9615369.75-1.2692308c-.384616-.6153877-.846151-1.1730769-1.384616-1.6730769-.5-.9615433-.93269-1.884611-1.298077-2.7692308-.365386-.8846198-.644229-1.6730734-.836538-2.3653846-.038462-.5000025-.096154-.9230752-.173077-1.2692308-.076923-.3461555-.153846-.7115365-.230769-1.0961538-.115385-.423079-.211538-.8461517-.288462-1.2692308-.076923-.423079-.115384-.8653823-.115384-1.326923-.192309-.2692322-.307693-.5384602-.346154-.8076924l.115384-.576923c.115386-.2692321.134616-.6249978.057693-1.0673077-.076924-.4423099-.173077-.8942285-.288462-1.3557693-.076923-.3846173-.163461-.80769-.259615-1.2692307-.096155-.4615408-.125-.9230746-.086539-1.3846154.038462-.4615408.163461-.8942288.375-1.29807693.21154-.40384817.567305-.75961385 1.067308-1.06730769l.980769-.05769231c.346156.19230865.682691.37499913 1.009616.54807692.326924.17307779.644229.35576827.951923.54807693.423079.19230868.826921.38461538 1.211538.57692308.384617.1923086.78846.4423061 1.211539.75l.403846.8076923.75.6346154v.6346154c.038461.1538469.057692.3653832.057692.6346154 0 .5000025.076922.8076917.230769.9230769l.23077.6923077c0 .5384642.057691 1.0480745.173076 1.5288461.115386.4807717.230769.9326902.346154 1.3557693.115385.423079.230769.8653823.346154 1.326923.115385.4615408.134616.9615358.057692 1.5.230771-.1153852.423077-.2499992.576924-.4038461.076923-.0769231.153845-.1346152.230769-.1730769.076923-.0384618.153846-.0961535.230769-.173077l3.403846-4.6153846-.115384-.5769231 1.211538-1.1538461c.307692-.3076939.605768-.5961525.894231-.8653846s.528845-.5576908.721154-.8653846l.634615-.4615385c1.230775-1.9230865 2.980758-3.11538232 5.25-3.57692308l.807692-.11538462.23077.75c.153846.42307904.471151.80769058.951923 1.1538462.480771.3461555.990382.6730753 1.528846.9807692l.519231.3461538c.192308.3846173.288461.673076.288461.8653846 0 .1923087-.019231.3653839-.057692.5192308l.230769.5769231c-.307694.9230815-.68269 1.5961517-1.125 2.0192308-.44231.423079-.874998.8076905-1.298077 1.1538461-.346155.3076939-.66346.5865372-.951923.8365385-.288463.2500012-.509615.5673057-.663462.9519231l-.403846.4615384c-.807696.4615408-1.326922 1.0769192-1.557692 1.8461539l-.173077.6923077h-.692308c-.038461 0-.124999.067307-.259615.201923-.134616.1346161-.336537.4711512-.605769 1.0096154-.269232.3846173-.461539.6346154-.576923.75l-.288462.2884616c-.038462.1538469-.086538.2980762-.144231.4326923-.057692.134616-.124999.2980759-.201923.4903846-.500002.5000025-.807691.8749987-.923077 1.125-.115385.2500012-.249999.5288446-.403846.8365384-.153847.3076939-.298076.6057678-.432692.8942308s-.355768.5865369-.663462.8942308zm17.019231 4.6153846c-.346156.0769235-.596153.2788445-.75.6057692s-.298077.6634598-.432693 1.0096154-.26923.6634601-.403846.9519231-.336537.4326923-.605769.4326923c-.038462.3076939-.14423.5769219-.317308.8076923s-.336537.4711526-.490384.7211539c-.153847.2500012-.269231.5192293-.346154.8076923-.076924.2884629-.038463.624998.115384 1.0096154-.307693.2307703-.499999.5576901-.576923.9807692-.076923.423079-.163461.8269211-.259615 1.2115384-.096154.3846174-.259614.7115372-.490385.9807693-.23077.2692321-.653843.3846156-1.26923.3461538-.115386.1538469-.134616.2499998-.057693.2884616.076924.0384617.134615.1730757.173077.4038461-.423079-.0769234-.740383-.0480776-.951923.0865385-.211539.134616-.471152.2211536-.778846.2596154-.730773-.2307704-1.336536-.6346125-1.817308-1.2115385-.480771-.576926-.903844-1.2211503-1.269231-1.9326923-.365386-.711542-.692306-1.4326887-.980769-2.1634615-.288463-.7307729-.567306-1.365382-.836538-1.9038462.115385-.423079.134616-.8365364.057692-1.2403846-.076923-.4038482-.211537-.7403833-.403846-1.0096154 1.884625-4.00002 3.942296-8.2692081 6.173077-12.8076923 2.23078-4.5384842 4.346144-9.0192087 6.346154-13.4423077.884619.34615558 1.759611.7403824 2.625 1.1826923s1.653842.9519202 2.365384 1.5288462c.711542.5769259 1.317306 1.2403808 1.817308 1.9903846.500002.7500037.826922 1.5865338.980769 2.5096154-.076923.2307703-.163461.3173079-.259615.2596153-.096154-.0576925-.182692-.0288467-.259616.0865385.153847.1923087.240385.3269227.259616.4038462.019231.0769234.019231.1538457 0 .2307692s-.028846.1826916-.028846.3173077c0 .134616.057691.3173065.173077.5480769-.153847-.0384617-.259615-.0192311-.317308.0576923-.057693.0769235-.182691.0769235-.375 0 .153847.4230791.201923.7692294.144231 1.0384616-.057693.2692321-.144231.5096143-.259616.7211538s-.211538.4423064-.288461.6923077c-.076924.2500012-.057693.5673058.057692.9519231-.115385 0-.201923.0288458-.259615.0865384-.057693.0576926-.105769.1153844-.144231.173077-.038462.0576925-.086538.1153843-.144231.1730769-.057692.0576926-.14423.0673079-.259615.0288461.115385.8461581.153846 1.6923035.115384 2.5384616-.038461.846158-.067307 1.7019187-.086538 2.5673077-.019231.8653889-.009616 1.769226.028846 2.7115384s.173076 1.9134566.403846 2.9134616c1.384623-.8076964 2.490381-1.8461475 3.317308-3.1153847.826927-1.2692371 1.499997-2.6922998 2.019231-4.2692307.519233-1.576931.91346-3.2692218 1.182692-5.0769231s.557691-3.6538367.865385-5.5384615c.346155-.3461556.615383-.7692283.807692-1.2692308s.365384-1.0288434.519231-1.5865385l.461538-1.6730769c.153847-.55769509.346153-1.06730538.576923-1.52884615.576926.07692347 1.067306.25961395 1.471154.54807693s.778845.59615221 1.125.92307692c.346154.3269247.711537.6346139 1.096154.9230769s.865382.4711535 1.442308.5480769c.46154.6538495.884613 1.2884585 1.26923 1.9038462.384618.6153877.634615 1.2692273.75 1.9615385-.192308.3076938-.336538.6538442-.432692 1.0384615s-.201922.7692288-.317308 1.1538462c-.115385.3846173-.269229.7403829-.461538 1.0673076-.192309.3269248-.461537.6057681-.807692.8365385-.115386 1.000005-.259615 1.9134574-.432693 2.7403846-.173077.8269272-.346153 1.6442268-.51923 2.4519231-.173078.8076963-.317308 1.6442264-.432693 2.5096154-.115385.8653889-.153846 1.8173025-.115384 2.8557692-.307694.8846198-.634614 1.8269181-.98077 2.8269231-.346155 1.000005-.615383 1.9038421-.807692 2.7115385-.615388.5-1.096152 1.0961503-1.442308 1.7884615-.346155.6923111-.711536 1.3846119-1.096153 2.0769231-.153847.1538469-.25.192308-.288462.1153846-.038462-.0769235-.173076-.1346152-.403846-.1730769.038462.1538469.038462.2692303 0 .3461538s-.086538.1442305-.144231.2019231-.096154.1442308-.115385.2596154c-.01923.1153852.009615.2692298.086539.4615384-.538464.2307704-1.019229.5576902-1.442308.9807693-.423079.423079-.874997.8076905-1.355769 1.1538461s-1.057689.5769225-1.730769.6923077c-.673081.1153852-1.548072-.0192288-2.625-.4038461-1.576931-1.153852-2.971148-2.4807618-4.182693-3.9807693-1.211544-1.5000075-2.201919-3.2884511-2.971153-5.3653846z"/></g></svg>